<?xml version="1.0" encoding="UTF-8"?>
<svg id="Lager_1" xmlns="http://www.w3.org/2000/svg" version="1.1" viewBox="0 0 411.8 512">
  <!-- Generator: Adobe Illustrator 30.2.1, SVG Export Plug-In . SVG Version: 2.1.1 Build 1)  -->
  <defs>
    <style>
      .st0 {
        fill: #db0000;
      }

      .st1 {
        fill: #cc7502;
      }

      .st2 {
        fill: #f2bc40;
      }

      .st3 {
        fill: #ffce00;
      }

      .st4 {
        fill: #ff6c22;
      }

      .st5 {
        fill: #ffdb9c;
      }

      .st6 {
        fill: #ff8d10;
      }
    </style>
  </defs>
  <path class="st6" d="M28.9,184.1c-7.8,5.7-13.7,10.8-17.9,15.2-4.2,4.5-6.7,9.1-7.6,13.9-1.2,7.2-.7,14.6,1.3,22.4,2.1,7.8,4.9,14.5,8.5,20.2,3.6,5.7,7.5,10.7,11.9,15,4.3,4.3,9.2,7.4,14.6,9.2,5.1,2.1,11.6,3.3,19.7,3.6,23.3,24.5,45.8,46.1,67.6,65,21.8,18.8,46.3,38.7,73.5,59.6,27.2,20.9,56.4,40.2,87.8,57.8,20.9,11.3,37.8,20.2,50.6,26.4,12.8,6.3,23.1,10.6,30.9,13,7.8,2.4,14.6,3.6,20.6,3.6s9.6-2.2,11.6-6.7c2.1-4.5,3.2-9.4,3.4-14.8.1-5.4,0-9.3-.7-11.6-.3-1.5-3.2-5.6-8.7-12.3-5.5-6.7-12.5-15-21.1-24.9-8.5-9.9-17.5-20.2-26.9-30.9-9.4-10.8-18.3-20.8-26.7-30.2-8.4-9.4-17.9-20.1-28.7-32L28.9,184.1Z"/>
  <path class="st2" d="M58.5,230.3c-3.6-6.6-7-11.9-10.3-16.1-3.3-4.2-6.9-7.9-10.8-11.2-3.9-3.3-7.8-4.9-11.6-4.9s-9.7,1.3-13,3.8c-3.3,2.5-6.4,6.3-9.4,11.4,2.1-16.4,8.1-32.6,17.9-48.4,9.9-15.5,20.7-29.5,32.5-41.9,11.8-12.4,23.2-22.5,34.3-30.2,11.3-7.8,23.3-15.8,35.8-24.2,12.5-8.4,23.4-15.2,32.7-20.6,6.3-3.6,14.3-7.3,24.2-11.2,9.9-3.9,20-7.6,30.5-11.2,10.5-3.6,19.4-6.6,26.9-9,7.8-2.7,17.8-5.4,30-8.1,12.2-2.7,24.4-4.6,36.5-5.8,12.1-1.2,22-1,29.8.4,11.3,2.4,19.6,7.1,24.9,14.1,5.2,7,7.8,14.6,7.8,22.6s-.8,15.2-2.5,20.6c-1.6,5.4-3.2,8.8-4.7,10.3-1.2,1.2-3.8,3.6-7.8,7.2-4,3.6-9.8,8.5-17.2,14.8L75.1,248.2l-16.6-17.9Z"/>
  <path class="st5" d="M80.4,205.2l-17,33.2c3,8.7,5.8,14.5,8.5,17.5,1.2,1.5,4.6,4.9,10.3,10.3,5.7,5.4,12.5,11.8,20.4,19.3,7.9,7.5,16.3,15.2,25.1,23.3,8.8,8.1,17.2,15.4,25.3,22,6,5.4,13.3,11.7,22,19,8.7,7.3,17.2,14.6,25.5,21.7,8.4,7.2,18.2,15.5,29.6,25.1.6,8.4,1.3,15.5,2,21.5.7,6,1.6,11.5,2.5,16.6.6,4.2,1.3,8.9,2,14.1.7,5.2,2,9.7,3.8,13.4,1.8,3.7,4.9,5.4,9.4,5.2,4.2,0,7-1.8,8.5-5.4,1.5-3.6,2.5-7.6,2.9-12.1.4-4.5,1.2-8.4,2.2-11.6,1-3.3,3.2-4.9,6.5-4.9,5.4.3,9,2.8,10.8,7.6,1.8,4.8,2.7,10.8,2.7,17.9s.1,14.3.4,21.3c.3,7,1.4,12.9,3.4,17.7,1.9,4.8,5.7,7.2,11.4,7.2s9.4-2,11.2-6c1.8-4,2.7-8.9,2.7-14.6s.2-10.9.7-15.7c.5-4.8,2-8.1,4.7-9.9,2.1-1.2,4.9-.6,8.3,1.8,3.4,2.4,7.6,5.4,12.5,9,4.9,3.6,10.8,6.9,17.7,9.9,12.2,5.4,22.2,9.7,29.8,13,7.6,3.3,13.4,4,17.2,2.2,3-1.5,4.5-7.1,4.7-16.8.1-9.7-.5-22-2-37-1.5-14.9-3.5-31-6-48.2-2.5-17.2-5.1-33.8-7.6-50-2.5-16.1-4.9-30.4-6.9-42.8-2.1-12.4-3.6-21.1-4.5-26.2-.6-5.4-1.6-13.7-2.9-24.9-1.3-11.2-2.9-24-4.7-38.3-1.8-14.3-3.7-29-5.6-43.9-1.9-14.9-3.7-28.9-5.4-41.9-1.6-13-3.1-23.7-4.3-32-1.2-8.4-1.8-13-1.8-13.9-.6-1.8-3.2-3.1-7.8-4-4.6-.9-11.6-1.6-20.8-2.2l-41.2,14.8-59.1,7.6-69.9,41.7-36.3,42.1-40.8,26.4Z"/>
  <path class="st1" d="M89.4,183.2c-7.8,3.9-15.1,11.6-22,23.3-6,9.9-9.6,18.9-11,27.1-1.3,8.2,0,12.8,4.3,13.7,3,.6,5.7-1.6,8.1-6.7,2.4-5.1,5-10.8,7.8-17,2.8-6.3,6.2-11.3,10.1-15.2,9-8.7,17-14.5,24.2-17.5,7.2-3,13.3-6.9,18.4-11.6,3.3-3,7.2-7.6,11.6-13.9,4.5-6.3,10.8-13.3,18.8-21.1,8.1-7.8,19.3-15.4,33.6-22.8,16.7-9,31.1-14.8,43.2-17.5,12.1-2.7,22.2-4.1,30.2-4.3,8.1-.1,14-1,17.9-2.5,5.1-1.8,9.3-4,12.5-6.5,3.3-2.5,6.8-4.9,10.5-7.2,3.7-2.2,8.7-4,15-5.2,10.2-2.1,21.5-.9,34,3.6,2.1-7.8,1.6-12.8-1.3-15.2-3-2.7-7.4-4.7-13.2-6s-13.5-1.1-23.1.7c-10.2,2.1-18.8,5.6-26,10.5-7.2,4.9-11.8,7.5-13.9,7.8-1.2.3-6.3.7-15.5,1.1-9.1.4-20.8,2.5-34.9,6-14.2,3.6-29.8,10.2-46.8,19.7-16.7,9.6-29.6,19-38.5,28.2-9,9.3-15.7,17.2-20.2,24s-8.7,11.1-12.5,13.2c-6.6,3.6-13.7,7.3-21.5,11.2Z"/>
  <path class="st0" d="M101,233c-.6,9.3-.7,14.8-.4,16.6.9,4.2,3.1,9,6.5,14.3,3.4,5.4,7.3,10.2,11.6,14.3,4.3,4.2,8.1,6.9,11.4,8.1,5.4,1.8,12.2,2.8,20.6,2.9,8.4.2,14.2-.5,17.5-2,2.4-.9,5.8-2.9,10.3-6,4.5-3.1,8.7-6.6,12.5-10.3,3.9-3.7,6.3-6.9,7.2-9.6.9-2.7,1.4-7.4,1.6-14.1.1-6.7-.2-13.4-1.1-19.9-.9-6.6-2.1-10.8-3.6-12.5-1.8-1.8-4.8-2.3-9-1.6-4.2.7-9.9,2.5-17,5.2l-68.1,14.8Z"/>
  <path class="st4" d="M112.7,206.1c-3.3,4.5-6.1,9.3-8.5,14.6-2.4,5.2-3.4,10.1-3.1,14.6.3,4.5,2.6,9.7,6.9,15.7,4.3,6,8.9,11.3,13.7,15.9,4.8,4.6,8.4,7.4,10.8,8.3,2.1.6,5.4,1.1,9.9,1.6,4.5.4,9,.6,13.4.4,4.5-.1,7.6-.5,9.4-1.1,1.5-.3,4.4-1.9,8.7-4.9,4.3-3,8.5-6.1,12.5-9.4,4-3.3,6.5-5.8,7.4-7.6.9-1.8,1.7-5.6,2.5-11.4.7-5.8,1-11.6.9-17.5-.2-5.8-1-9.6-2.5-11.4-1.8-1.8-4.4-4.4-7.8-7.8-3.4-3.4-7.3-6.7-11.6-9.9-4.3-3.1-8.4-5.3-12.3-6.5-3.9-1.2-8.7-1.5-14.3-.9-5.7.6-11.1,1.6-16.1,3.1-5.1,1.5-8.8,3.1-11.2,4.9-2.4,1.8-5.2,4.9-8.5,9.4Z"/>
  <path class="st0" d="M295,260.7c-11.9-.9-22-1.5-30-1.8-8.1-.3-15.2-.4-21.3-.4s-9.3.4-9.6,1.3c-.3,2.1-.5,6.2-.7,12.3-.2,6.1.7,12.2,2.5,18.1,1.5,4.2,4.2,9.3,8.1,15.5,3.9,6.1,10.8,11.3,20.6,15.5,6.9,2.7,13.3,3.8,19.3,3.4,6-.4,11.1-1.6,15.5-3.4,4.3-1.8,7.4-3.3,9.2-4.5,4.8-3.6,8.6-7.4,11.4-11.4,2.8-4,4.5-7.4,5.2-10.1.6-1.2-.6-3.7-3.6-7.4-3-3.7-6.6-7.7-10.8-11.9-4.2-4.2-9.4-9.3-15.7-15.2Z"/>
  <path class="st4" d="M253.8,235.4c-5.1,3.1-9.6,6.9-13.7,11.4-4,4.5-6,9.3-6,14.3-.3,7.8,1.6,15.5,5.8,23.3,4.2,7.8,7.6,12.7,10.3,14.8,2.1,1.5,5.3,3.4,9.6,5.8,4.3,2.4,9.1,4.5,14.3,6.3,5.2,1.8,10.2,2.5,15,2.2,4.5-.3,9.4-1.5,14.8-3.6,5.4-2.1,10-4.6,13.9-7.4,3.9-2.8,6.3-5.2,7.2-6.9,1.5-3.3,2.5-8.5,2.9-15.7s.4-13-.2-17.5c-.3-3-2.3-6.9-6-11.6-3.7-4.8-8-9.3-12.8-13.4-4.8-4.2-8.8-6.7-12.1-7.6-4.8-1.5-10.1-2.4-15.9-2.7-5.8-.3-10.8.3-15,1.8-3,1.2-7,3.4-12.1,6.5Z"/>
  <path class="st0" d="M263.7,370.9c-11.1-3-20.2-5.4-27.6-7.4-7.3-1.9-13.8-3.6-19.5-4.9-5.7-1.3-8.7-1.9-9-1.6-.3.6-1.6,2.7-4,6.3-2.4,3.6-3.1,6.6-2.2,9,.6,1.5,2.8,4,6.5,7.4,3.7,3.4,7.8,6.9,12.1,10.5,4.3,3.6,7.8,6.6,10.5,9,2.7,2.4,6.6,5.2,11.9,8.5,5.2,3.3,10.2,6.1,14.8,8.5,4.6,2.4,7.4,3.6,8.3,3.6,3.6-.6,7.6-4.6,12.1-12.1l-13.9-36.7Z"/>
  <path class="st4" d="M245.5,340.2c-8.5-.1-15.5,1-20.8,3.4-10.8,5.1-16.7,10.6-17.9,16.6-.6,2.4.7,5.5,3.8,9.4,3.1,3.9,5.4,6.4,6.9,7.6,1.8,1.2,6.4,4.6,13.9,10.3,5.4,4.2,9.8,7.6,13.2,10.3,3.4,2.7,6,4.8,7.8,6.3,3.9,3,7.9,5.3,12.1,6.9,4.2,1.6,7,2.6,8.5,2.9.9,0,2.5-1.6,4.7-4.7s4.3-7.5,6.3-13.2c1.9-5.7,2.5-11.9,1.6-18.8-.6-5.7-2.2-11-4.7-15.9-2.5-4.9-6.6-9.5-12.3-13.7-6.9-4.8-14.6-7.2-23.1-7.4Z"/>
  <path class="st0" d="M343.9,316.7c-2.4,6.3-3.9,11.9-4.5,16.8-.6,4.9,0,10.4,1.8,16.4,4.5,13.7,14.8,22.8,30.9,27.3,8.1,2.4,16.4,3.3,25.1,2.7l.4-11.2-33.2-51.1-20.6-.9Z"/>
  <path class="st4" d="M384.2,291.2c-9.3.3-16.9,1.9-22.8,4.7-6,2.8-11.2,8.1-15.7,15.9-5.1,9-6.5,17.1-4.3,24.4,2.2,7.3,5.3,13.1,9.2,17.2,3.9,4.5,8.6,8.1,14.1,10.8,5.5,2.7,10.5,4.2,15,4.5,4.8.3,10.8.3,17.9,0-1.2-8.7-2.3-16.4-3.4-23.1-1.1-6.7-2.2-13.2-3.4-19.5-.9-3.9-1.9-8.6-2.9-14.1-1-5.5-2.3-12.5-3.8-20.8Z"/>
  <path class="st0" d="M310.3,126.8c-9.9.6-18.1,1.1-24.9,1.6-6.7.4-12.7,1.1-17.9,1.8-5.2.7-8.3,1.9-9.2,3.4-.9,1.5-1.6,4.6-2,9.2-.4,4.6-.6,9.5-.4,14.6.1,5.1.5,9,1.1,11.6.3,3,2.1,6.9,5.4,11.6,3.3,4.8,7.8,9.1,13.7,13,5.8,3.9,13.2,5.8,22.2,5.8,13.4.3,23.2-1.5,29.3-5.4,6.1-3.9,11.7-10.9,16.8-21.1,3.6-6.6,5.2-13.1,4.9-19.7-.3-6.6-2.1-14.2-5.4-22.8l-33.6-3.6Z"/>
  <path class="st4" d="M293,105.5c-6.4,1.6-11.4,3.7-15,6-3.6,2.7-7.7,6.2-12.3,10.5-4.6,4.3-7.1,8.4-7.4,12.3-.3,2.7.1,6.4,1.3,11.2,1.2,4.8,2.5,9.4,4,13.9,1.5,4.5,2.7,7.5,3.6,9,1.2,2.1,3.9,5.2,8.1,9.4,4.2,4.2,7.2,6.7,9,7.6,2.7,1.2,6.5,1.9,11.4,2,4.9.2,9.8,0,14.6-.7,4.8-.6,8.2-1.2,10.3-1.8,2.1-.9,5.2-2.8,9.2-5.6,4-2.8,7.7-6,11-9.6,3.3-3.6,5.4-6.6,6.3-9,.9-3.9,1.4-9,1.6-15.2.1-6.3-2-13.3-6.5-21.1-4.2-7.8-9.2-12.8-15-15.2-5.8-2.4-11.3-4-16.4-4.9-5.4-.9-11.3-.5-17.7,1.1Z"/>
  <path class="st0" d="M336.3,421.1c-3.6,9.6-4.9,17-4,22.4.6,4.2,2.7,8.8,6.3,13.9,3.6,5.1,8.5,8.8,14.8,11.2,2.4.9,5.7,1.3,10.1,1.3s8.5-.3,12.5-.9c4-.6,6.8-1.5,8.3-2.7,4.5-3.3,7.6-7.3,9.4-12.1,1.8-4.8,2.7-8.7,2.7-11.6-.3-1.2-1.8-3.4-4.5-6.5s-6.7-7.4-12.1-12.8l-43.5-2.2Z"/>
  <path class="st4" d="M353.3,406.8c-5.7,2.4-10,5.1-13,8.1-5.4,5.4-6.9,12.7-4.5,22,1.8,8.1,4.8,13.7,9,16.8,4.2,3.1,7.5,5.3,9.9,6.5,2.4,1.2,5.8,1.9,10.3,2.2,4.5.3,8.8,0,13-.7,4.2-.7,7.3-1.9,9.4-3.4,3.3-2.4,5.8-5.6,7.6-9.6,1.8-4,2.4-9,1.8-15-.6-6-2.7-11.9-6.3-17.9-3.6-6-10.3-9.7-20.2-11.2-5.7-.9-11.4-.1-17,2.2Z"/>
  <path class="st3" d="M99.7,122.1c3,1.1,6.2,1.5,9.6,1.3,3.4-.1,6.2-.4,8.3-.7,2.7-.3,6.3-1,10.8-2,4.5-1,6.7-3.5,6.7-7.4s-2.2-6.6-6.5-7.2c-4.3-.6-8.4-.9-12.3-.9-3.9.3-8.4,1.3-13.7,2.9-5.2,1.6-7.7,4.3-7.4,7.8,0,3,1.5,5,4.5,6Z"/>
  <path class="st3" d="M184.2,68.1c2.5.6,4.9,1.1,6.9,1.3,2.1.3,4.2,0,6.3-.9,2.1-.9,3.3-2.5,3.6-4.9.3-5.1-3-7.8-9.9-8.1-7.2-.3-10.8,2.1-10.8,7.2s1.3,4.8,3.8,5.4Z"/>
  <path class="st3" d="M229.8,77.9c3.7-2.7,6.3-5.1,7.8-7.2,1.5-2.1,2.4-4.5,2.7-7.2.3-2.7-.4-4.8-2.2-6.3-1.8-1.5-4.1-1.6-6.9-.4-2.8,1.2-5.3,2.7-7.4,4.5-2.4,2.1-4.2,4.7-5.4,7.8-1.2,3.1-.8,5.8,1.3,7.8,3,3.3,6.3,3.6,10.1.9Z"/>
  <path class="st3" d="M295.7,45.9c3.1-1.3,6.2-3.4,9.2-6,3-2.7,5.2-4.8,6.7-6.3,2.7-2.4,4.7-5.1,6-8.1,1.3-3,.8-5.8-1.6-8.5-2.4-2.7-5.7-2.8-9.9-.4-4.2,2.4-7.3,4.8-9.4,7.2-2.1,2.4-4.8,5.7-8.1,9.9-3.3,4.2-3.7,7.6-1.3,10.3,2.4,2.7,5.2,3.4,8.3,2Z"/>
  <path class="st3" d="M64.8,180.5c1.5-3.3,2.5-6.4,3.1-9.4.6-3.3.7-6.3.2-9-.4-2.7-1.9-4.3-4.3-4.9-3.3-.6-5.8.3-7.4,2.7-1.6,2.4-2.8,5.1-3.4,8.1-.3,2.7-.5,5.8-.7,9.4-.2,3.6,1.4,5.8,4.7,6.7,3.6.9,6.1-.3,7.6-3.6Z"/>
</svg>